<svg data-v-0dd9719b="" version="1.0" xmlns="http://www.w3.org/2000/svg" xmlns:xlink="http://www.w3.org/1999/xlink" width="100%" height="100%" viewBox="0 0 340.000000 250.000000" preserveAspectRatio="xMidYMid meet" color-interpolation-filters="sRGB" style="margin: auto;"> <rect data-v-0dd9719b="" x="0" y="0" width="100%" height="100%" fill="#fff" fill-opacity="1" class="background"></rect> <rect data-v-0dd9719b="" x="0" y="0" width="100%" height="100%" fill="url(#watermark)" fill-opacity="1" class="watermarklayer"></rect> <g data-v-0dd9719b="" fill="#692f8e" class="icon-text-wrapper icon-svg-group iconsvg" transform="translate(50.105003356933594,94.99939918518066)"><g class="iconsvg-imagesvg" transform="translate(0,0)"><g><rect fill="#692f8e" fill-opacity="0" stroke-width="2" x="0" y="0" width="60" height="60.00120002400048" class="image-rect"></rect> <svg x="0" y="0" width="60" height="60.00120002400048" filtersec="colorsb7508342400" class="image-svg-svg primary" style="overflow: visible;"><svg version="1.1" id="cube" xmlns="http://www.w3.org/2000/svg" xmlns:xlink="http://www.w3.org/1999/xlink" x="0px" y="0px" viewBox="7 8.529997825622559 495.08001708984375 495.0899963378906" enable-background="new 0 0 511 507.62" xml:space="preserve">
<g>
	<path fill="#702B8C" d="M280.1,183.18l-80.37-139.2c-8.14-14.1-27.49-21.98-42.46-15.58c-65.46,28-116.4,83.4-138.4,151.78
		c-4.99,15.49,5.87,28.53,22.14,28.53h224.35C281.64,208.7,288.24,197.27,280.1,183.18z"></path>
	<path fill="#402D7C" d="M7.39,242.19C7.13,246.79,7,251.41,7,256.08c0,29.76,5.26,58.3,14.89,84.73
		c5.57,15.29,23.15,20.42,37.24,12.28l190.54-110.01c14.1-8.14,12.33-14.73-3.95-14.73H38.02C21.75,228.34,7.82,234.53,7.39,242.19z
		"></path>
	<path fill="#692F8E" d="M457.92,397.19c27.83-40.03,44.16-88.66,44.16-141.11c0-4.66-0.13-9.29-0.39-13.89
		c-0.43-7.66-14.36-13.84-30.63-13.84H358.33c-16.28,0-22.87,11.43-14.73,25.52l81.38,140.95
		C433.11,408.91,448.63,410.55,457.92,397.19z"></path>
	<path fill="#482571" d="M410.79,409.54L336.41,280.7c-8.14-14.1-14.73-12.33-14.73,3.95v180.28c0,16.28,12.79,26.06,27.82,19.81
		c19.2-7.98,37.18-18.31,53.57-30.63C416.08,444.34,418.93,423.64,410.79,409.54z"></path>
	<path fill="#732A8C" d="M347.19,186.77l89.04-51.41c14.09-8.14,18.42-25.91,7.95-38.37c-25.34-30.18-57.75-54.23-94.68-69.59
		c-15.03-6.25-27.82,3.54-27.82,19.81v124.81C321.67,188.31,333.1,194.91,347.19,186.77z"></path>
	<path fill="#6F2D84" d="M377.98,208.7h90.08c16.28,0,27.13-13.03,22.15-28.53c-1.75-5.43-3.68-10.79-5.78-16.05
		c-6.05-15.11-23.98-20.04-38.08-11.9l-72.31,41.75C359.94,202.1,361.7,208.7,377.98,208.7z"></path>
	<path fill="#772A8B" d="M276.51,250.27L68.7,370.25c-14.1,8.14-18.77,26.12-8.7,38.91c45.33,57.53,115.62,94.46,194.54,94.46
		c8.05,0,16-0.39,23.85-1.14c13.13-1.26,23.63-16.62,23.63-32.9V265C302.03,248.73,290.6,242.13,276.51,250.27z"></path>
	<path fill="#701C87" d="M302.03,152.39V42.57c0-16.28-10.5-31.63-23.63-32.9c-7.85-0.75-15.81-1.14-23.85-1.14
		c-8.43,0-16.76,0.42-24.98,1.25c-13.75,1.38-18.12,15.17-9.99,29.27l67.72,117.29C295.43,170.43,302.03,168.67,302.03,152.39z"></path>
</g>
</svg></svg> <!----></g></g> <g transform="translate(67,2.219350814819336)"><g data-gra="path-name" fill-rule="" class="tp-name iconsvg-namesvg" transform="translate(0,0)"><g transform="scale(1)"><g><path d="M16.7-27.6L16.7-35.16 24.26-35.16 24.26-27.6 40.96-27.6 40.96-23.91 20.92-23.91Q20.74-23.73 18.98-19.69L18.98-19.69Q18.11-17.93 8.96 2.11L8.96 2.11 7.38 5.45 0 5.45 0 5.45Q9.49-15.29 10.37-17.23L10.37-17.23Q13.36-23.55 13.54-23.91L13.54-23.91 0-23.91 0-27.6 16.7-27.6ZM20.74-22.68L20.74-22.68 28.13-22.68Q28.3-22.5 29.88-18.81L29.88-18.81Q37.97-1.41 38.5-0.18L38.5-0.18Q38.67 0.18 41.13 5.45L41.13 5.45 33.75 5.45Q33.57 5.27 31.99 1.76L31.99 1.76Q31.46 0.53 21.8-20.57L21.8-20.57Q21.8-20.57 20.74-22.68ZM14.59-8.09L14.59-8.09 21.97-8.09Q22.15-8.09 22.32-6.68L22.32-6.68Q22.68-5.8 25.66 5.45L25.66 5.45 18.11 5.45Q18.11 5.1 14.59-8.09ZM46.93-8.79L46.93-34.1 84.55-34.1 84.55-30.59 73.65-30.59Q73.65-30.59 73.13-28.48L73.13-28.48Q73.13-28.3 72.42-26.37L72.42-26.37 79.28-26.37Q81.91-26.37 82.79-24.08L82.79-24.08Q82.97-23.55 82.97-23.03L82.97-23.03 82.97-9.14 73.13-9.14 73.13 5.45 65.74 5.45 65.74-9.14 55.72-9.14 55.72-26.37Q55.72-26.37 55.72-26.37L55.72-26.37 62.58-26.37Q62.75-26.37 62.75-26.37L62.75-26.37 62.75-19.69 76.11-19.69 76.11-21.09Q76.11-22.32 74.88-22.68L74.88-22.68Q74.71-22.85 74.53-22.85L74.53-22.85Q65.57-22.85 63.98-22.85L63.98-22.85 63.98-26.37Q63.98-26.37 63.98-26.37L63.98-26.37 65.04-26.37Q65.21-26.37 65.39-27.42L65.39-27.42Q65.74-28.48 66.27-30.41L66.27-30.41 66.27-30.59 54.32-30.59 54.32-8.79Q54.32-1.05 51.68 4.75L51.68 4.75Q51.33 5.45 51.33 5.45L51.33 5.45 43.95 5.45 43.95 5.45Q45 3.34 45.88-0.53L45.88-0.53Q46.93-5.1 46.93-8.79L46.93-8.79ZM76.11-16L62.75-16 62.75-12.83 76.11-12.83 76.11-16ZM54.14 5.45L56.6-7.91 63.63-7.91 63.63-7.91Q61.7 2.11 61.17 5.45L61.17 5.45 54.14 5.45ZM75.06-7.91L75.06-7.91 82.09-7.91Q82.09-7.91 82.27-6.86L82.27-6.86 84.55 5.45 77.52 5.45Q75.06-7.91 75.06-7.91L75.06-7.91ZM104.06-35.16L111.45-35.16 110.39-33.57 110.39-33.57 126.74-33.57 126.74-29.88 107.75-29.88Q107.58-29.71 106-27.42L106-27.42 125.33-27.42 125.33-23.73Q125.33-23.73 125.33-23.73L125.33-23.73 103.36-23.73Q103.36-23.55 101.78-21.45L101.78-21.45 101.78-21.45 128.32-21.45Q128.32-21.45 128.32-21.27L128.32-21.27 128.32-17.75Q128.32-17.75 128.32-17.75L128.32-17.75 124.98-17.75 128.32-13.18 128.32-13.18 120.94-13.18Q120.41-13.89 117.77-17.58L117.77-17.58Q117.6-17.75 117.6-17.75L117.6-17.75 99.14-17.75Q98.96-17.75 95.8-13.18L95.8-13.18 88.42-13.18 88.42-13.18 91.76-17.75 88.42-17.75Q88.42-17.75 88.42-17.75L88.42-17.75 88.42-21.27Q88.42-21.45 88.42-21.45L88.42-21.45 94.39-21.45Q94.39-21.62 95.98-23.73L95.98-23.73 95.98-23.73 91.41-23.73Q91.41-23.73 91.41-23.73L91.41-23.73 91.41-27.42 98.61-27.42Q98.61-27.42 100.37-29.88L100.37-29.88 100.37-29.88 90-29.88 90-33.57 102.83-33.57Q103.01-33.57 104.06-35.16L104.06-35.16ZM91.41 5.45L91.41-12.48 98.79-12.48 98.79-5.27 117.95-5.27 117.95-7.21Q117.95-8.44 116.72-8.79L116.72-8.79Q116.54-8.96 116.19-8.96L116.19-8.96 100.2-8.96 100.2-12.48 121.99-12.48Q123.75-12.48 124.98-10.72L124.98-10.72Q125.33-9.84 125.33-9.14L125.33-9.14 125.33 5.45 91.41 5.45ZM117.95-1.76L98.79-1.76 98.79 1.93 117.95 1.93 117.95-1.76ZM137.81-30.41L137.81-35.16 143.09-35.16 143.09-30.41 149.06-30.41 149.06-26.89Q149.06-26.89 149.06-26.89L149.06-26.89 143.09-26.89 143.09 5.45 137.81 5.45 137.81-26.89 131.84-26.89 131.84-30.41 137.81-30.41ZM149.94-30.76L149.94-34.45 168.05-34.45Q170.51-34.45 171.56-32.87L171.56-32.87Q171.91-32.52 171.91-31.99L171.91-31.99Q171.91-31.11 170.68-29.88L170.68-29.88Q169.8-29.36 158.03-20.57L158.03-20.57 169.28-20.57Q171.21-20.57 172.27-18.98L172.27-18.98Q172.79-18.11 172.79-17.23L172.79-17.23 172.79-1.76Q172.79 1.58 170.68 5.45L170.68 5.45 165.06 5.45 165.06 5.45Q167.17 2.11 167.17-1.76L167.17-1.76 167.17-15.29Q167.17-16.52 165.94-16.88L165.94-16.88Q165.76-16.88 165.23-16.88L165.23-16.88 149.59-16.88 149.59-20.57Q149.59-20.57 158.55-27.42L158.55-27.42Q160.66-29 161.02-29.36L161.02-29.36Q161.37-29.71 161.37-30.06L161.37-30.06 161.37-30.06Q161.19-30.76 160.49-30.76L160.49-30.76 149.94-30.76ZM133.07-23.38L133.07-23.38 137.11-23.38 135.7 3.87 131.84 3.87Q133.07-22.15 133.07-23.38ZM143.96-23.38L143.96-23.38 147.83-23.38 149.06 2.11Q149.06 3.34 149.06 3.87L149.06 3.87 149.06 3.87 145.2 3.87Q145.2 3.87 143.96-23.03L143.96-23.03 143.96-23.2Q143.96-23.2 143.96-23.38ZM152.4-15.64L152.4-15.64 157.68-15.64Q154.34 5.45 154.34 5.45L154.34 5.45 149.06 5.45Q152.23-14.94 152.4-15.64ZM159.61-15.64L159.61-15.64 164.71-15.64 164.71-15.64Q164.36-13.01 161.54 5.45L161.54 5.45 156.27 5.45Q156.27 5.45 159.61-15.64Z" transform="translate(0, 35.15999984741211)"></path></g> <!----> <!----> <!----> <!----> <!----> <!----> <!----></g></g> <g data-gra="path-slogan" fill-rule="" class="tp-slogan iconsvg-slogansvg" fill="#692f8e" transform="translate(5.000007629394531,46.61000061035156)"><rect x="0" height="1" y="3.9750003814697266" width="2.3199996948242188"></rect> <rect height="1" y="3.9750003814697266" width="2.3199996948242188" x="160.4699935913086"></rect> <g transform="translate(5.319999694824219,0)"><g transform="scale(1)"><path d="M3.09-7.59L0.19-7.59L0.19-8.58L7.13-8.58L7.13-7.59L4.22-7.59L4.22 0L3.09 0L3.09-7.59ZM13.83 0L12.98-2.48L9.52-2.48L8.63 0L7.45 0L10.69-8.58L12-8.58L15.09 0L13.83 0ZM11.25-7.31L9.89-3.52L12.56-3.52L11.30-7.31L11.25-7.31ZM16.31-8.58L17.48-8.58L17.48 0L16.31 0L16.31-8.58ZM26.39-8.58L23.16-3.47L23.16 0L21.98 0L21.98-3.47L18.75-8.58L20.11-8.58L22.55-4.45L25.03-8.58L26.39-8.58ZM33.09-3.19L33.09-8.58L34.27-8.58L34.27-3.05Q34.13 0.05 30.75 0.14L30.75 0.14Q27.61 0.05 27.47-2.86L27.47-2.86L27.47-8.58L28.64-8.58L28.64-3.19Q28.69-0.84 30.80-0.80L30.80-0.80Q33.09-0.84 33.09-3.19L33.09-3.19ZM41.72 0L40.88-2.48L37.41-2.48L36.52 0L35.34 0L38.58-8.58L39.89-8.58L42.98 0L41.72 0ZM39.14-7.31L37.78-3.52L40.45-3.52L39.19-7.31L39.14-7.31ZM45.42-8.58L49.73-1.64L49.73-8.58L50.86-8.58L50.86 0L49.55 0L45.19-6.94L45.14-6.94L45.14 0L44.02 0L44.02-8.58L45.42-8.58ZM62.25-6.09L62.25-6.09L61.17-6.09Q61.08-7.73 59.02-7.83L59.02-7.83Q57.09-7.78 57.09-6.33L57.09-6.33Q57.09-5.39 58.13-5.25L58.13-5.25L60.56-4.69Q62.48-4.22 62.48-2.34L62.48-2.34Q62.44 0.05 59.11 0.14L59.11 0.14Q57.28 0.14 56.53-0.61L56.53-0.61Q55.59-1.31 55.64-2.77L55.64-2.77L56.77-2.77Q56.81-0.80 59.11-0.75L59.11-0.75Q61.36-0.80 61.41-2.20L61.41-2.20Q61.59-3.38 59.53-3.75L59.53-3.75L57.75-4.13Q55.92-4.64 55.92-6.19L55.92-6.19Q56.06-8.72 58.92-8.81L58.92-8.81Q62.16-8.81 62.25-6.09ZM67.59-7.64L65.25-7.64L65.25-4.64L67.55-4.64Q69.33-4.64 69.33-6.19L69.33-6.19Q69.33-7.59 67.59-7.64L67.59-7.64ZM67.97-3.61L65.25-3.61L65.25 0L64.08 0L64.08-8.58L67.97-8.58Q70.41-8.48 70.50-6.19L70.50-6.19Q70.36-3.70 67.97-3.61L67.97-3.61ZM76.03-3.70L73.22-3.70L73.22 0L72.05 0L72.05-8.58L76.03-8.58Q78.89-8.58 78.89-6.28L78.89-6.28Q78.89-4.88 77.67-4.22L77.67-4.22Q78.70-3.94 78.70-2.58L78.70-2.58L78.80-1.03Q78.75-0.38 79.22-0.19L79.22-0.19L79.22 0L77.77 0Q77.63-0.61 77.58-2.16L77.58-2.16Q77.63-3.70 76.03-3.70L76.03-3.70ZM76.13-7.64L73.22-7.64L73.22-4.69L75.94-4.69Q77.67-4.69 77.67-6.19L77.67-6.19Q77.67-7.64 76.13-7.64L76.13-7.64ZM80.72-8.58L81.89-8.58L81.89 0L80.72 0L80.72-8.58ZM85.27-8.58L89.58-1.64L89.58-8.58L90.70-8.58L90.70 0L89.39 0L85.03-6.94L84.98-6.94L84.98 0L83.86 0L83.86-8.58L85.27-8.58ZM98.91-3.61L96.28-3.61L96.28-4.59L100.03-4.59L100.03 0L99.28 0L99-1.08Q98.02 0.09 96.19 0.14L96.19 0.14Q94.45 0.14 93.52-0.75L93.52-0.75Q92.11-2.06 92.16-4.36L92.16-4.36Q92.48-8.63 96.23-8.81L96.23-8.81Q99.42-8.63 99.89-6L99.89-6L98.77-6Q98.30-7.78 96.19-7.83L96.19-7.83Q93.52-7.64 93.38-4.31L93.38-4.31Q93.38-0.75 96.23-0.75L96.23-0.75Q97.27-0.75 98.02-1.31L98.02-1.31Q98.95-2.06 98.91-3.61L98.91-3.61ZM108.80-7.64L106.45-7.64L106.45-4.64L108.75-4.64Q110.53-4.64 110.53-6.19L110.53-6.19Q110.53-7.59 108.80-7.64L108.80-7.64ZM109.17-3.61L106.45-3.61L106.45 0L105.28 0L105.28-8.58L109.17-8.58Q111.61-8.48 111.70-6.19L111.70-6.19Q111.56-3.70 109.17-3.61L109.17-3.61ZM119.91-4.27L119.91-4.27Q119.72-7.64 116.91-7.83L116.91-7.83Q114.05-7.69 113.91-4.27L113.91-4.27Q114.05-0.94 116.91-0.80L116.91-0.80Q119.72-0.98 119.91-4.27ZM121.08-4.27L121.08-4.27Q120.80 0 116.91 0.14L116.91 0.14Q112.97 0 112.69-4.27L112.69-4.27Q112.92-8.72 116.91-8.81L116.91-8.81Q120.80-8.67 121.08-4.27ZM126.09-7.64L123.75-7.64L123.75-4.64L126.05-4.64Q127.83-4.64 127.83-6.19L127.83-6.19Q127.83-7.59 126.09-7.64L126.09-7.64ZM126.47-3.61L123.75-3.61L123.75 0L122.58 0L122.58-8.58L126.47-8.58Q128.91-8.48 129-6.19L129-6.19Q128.86-3.70 126.47-3.61L126.47-3.61ZM130.41-8.58L131.58-8.58L131.58-1.03L135.94-1.03L135.94 0L130.41 0L130.41-8.58ZM142.73 0L141.89-2.48L138.42-2.48L137.53 0L136.36 0L139.59-8.58L140.91-8.58L144 0L142.73 0ZM140.16-7.31L138.80-3.52L141.47-3.52L140.20-7.31L140.16-7.31ZM149.16-3.70L146.34-3.70L146.34 0L145.17 0L145.17-8.58L149.16-8.58Q152.02-8.58 152.02-6.28L152.02-6.28Q152.02-4.88 150.80-4.22L150.80-4.22Q151.83-3.94 151.83-2.58L151.83-2.58L151.92-1.03Q151.88-0.38 152.34-0.19L152.34-0.19L152.34 0L150.89 0Q150.75-0.61 150.70-2.16L150.70-2.16Q150.75-3.70 149.16-3.70L149.16-3.70ZM149.25-7.64L146.34-7.64L146.34-4.69L149.06-4.69Q150.80-4.69 150.80-6.19L150.80-6.19Q150.80-7.64 149.25-7.64L149.25-7.64Z" transform="translate(-0.1875, 8.8125)"></path></g></g></g></g></g><defs v-gra="od"></defs></svg>